<svg xmlns:xlink="http://www.w3.org/1999/xlink" xmlns="http://www.w3.org/2000/svg" version="1.1" viewBox="0 0 1024 1024" height="1024px" width="1024px">
    <title>警车</title>
    <defs>
        <path id="path-1" d="M12.9461938,224.832669 C14.3769358,210.808439 22.1183333,201.859335 36.1703864,197.985355 C50.2224394,194.111376 88.2847726,184.45157 150.357386,169.005937 L242.590946,13.9825992 C248.364012,4.6608664 256.771599,0 267.813708,0 C278.855817,0 376.789229,0 561.613944,0 C574.642953,1.71015048 584.122153,6.37101688 590.051545,13.9825992 C595.980937,21.5941815 631.004749,68.8275324 695.122981,155.682652 L948.740606,212.109765 C964.913535,219.658733 973,227.955975 973,237.001491 C973,246.047007 973,277.379844 973,331 L0,331 L12.9461938,224.832669 Z"></path>
        <polygon points="53.0692778 0 -3.57408221e-13 128 220 128 194.971924 0" id="path-3"></polygon>
        <polygon points="0 0 25.6673556 128 247 128 152.849363 0" id="path-5"></polygon>
    </defs>
    <g fill-rule="evenodd" fill="none" stroke-width="1" stroke="none" id="警车">
        <path opacity="0.400000006" fill-rule="nonzero" fill="#8ECEC5" id="路径-16" d="M20.6203454,875.029447 L1043.99963,875.029447 L1045,904.532376 C984.687757,917.994238 903.348525,924.72517 800.982305,924.72517 C798.876737,953.90574 760.856709,955.023551 696.393388,953.356356 C661.817813,955.952786 655.322028,959.724302 644.915589,970.419508 C634.509149,981.114714 586.83924,1006.45675 511.80691,970.419508 C488.939724,960.476882 473.056192,953.617507 439.548165,986.339338 C406.040138,1019.06117 376.174839,988.048261 369.088138,979.233884 C362.001437,970.419508 364.184235,952.531963 305.578605,946.836191 C272.848305,943.749868 261.192693,934.222103 270.61177,918.252896 C67.6676577,909.04594 -21.1286681,894.635085 4.2227925,875.020331 C9.55723759,874.990465 15.0230886,874.993504 20.6203454,875.029447 Z"></path>
        <path opacity="0.08" fill-rule="nonzero" fill="#8ECEC5" id="路径-58" d="M6.44092428,620.9459 C-2.08463502,583.635089 -57.5812426,340.658204 99.331009,307.249897 C256.243261,273.84159 348.94172,312.752369 417.887125,244.724924 C486.832529,176.697479 504.026327,187.862747 560.65578,192.362037 C617.285233,196.861327 682.91796,147.756539 704.972085,133.006562 C727.026211,118.256585 926.148921,23.3562082 977.05681,307.249897 C985.102507,429.988126 991.788722,563.145211 935.458848,613.584552 C879.128974,664.023892 936.487921,709.314313 977.05681,714.347016 C1017.6257,719.379719 958.0906,805.562974 864.389621,843.190133 C802.088994,871.548321 399.10079,952.859186 157.771972,869.276571 C41.2387404,818.639517 14.9664836,658.256711 6.44092428,620.9459 Z"></path>
        <g transform="translate(12.000000, 367.000000)" id="车">
            <g transform="translate(12.000000, 57.000000)" id="矩形">
                <mask fill="white" id="mask-2">
                    <use xlink:href="#path-1"></use>
                </mask>
                <use xlink:href="#path-1" fill="#FFFFFF" id="蒙版"></use>
                <path mask="url(#mask-2)" fill="#D6DBDB" id="路径-91" d="M-177,38 C-96.2601721,188.235412 160.739828,291.902079 594,349 C538.102287,348.46557 281.102287,348.46557 -177,349 L-177,38 Z"></path>
                <rect height="47" width="37" y="231" x="940" mask="url(#mask-2)" fill="#E85F5B"></rect>
                <rect height="47" width="38" y="231" x="4.01456646e-13" mask="url(#mask-2)" fill="#E85F5B"></rect>
            </g>
            <g transform="translate(227.000000, 92.000000)" id="路径-86-+-路径-89-蒙版">
                <mask fill="white" id="mask-4">
                    <use xlink:href="#path-3"></use>
                </mask>
                <use xlink:href="#path-3" fill-rule="nonzero" fill="#8ECEC5" id="蒙版"></use>
                <polygon points="139.044843 -33 3 138 57.4372081 138 193 -33" mask="url(#mask-4)" opacity="0.400000006" fill-rule="nonzero" fill="#C5F2EB" id="路径-86"></polygon>
                <polygon points="202.812095 -33 73 138 97.4374185 138 226 -33" mask="url(#mask-4)" opacity="0.400000006" fill-rule="nonzero" fill="#C5F2EB" id="路径-89"></polygon>
            </g>
            <g transform="translate(440.000000, 92.000000)" id="路径-86-+-路径-89-蒙版">
                <mask fill="white" id="mask-6">
                    <use xlink:href="#path-5"></use>
                </mask>
                <use xlink:href="#path-5" fill-rule="nonzero" fill="#8ECEC5" id="蒙版"></use>
                <polygon points="123.044843 -33 -13 138 41.4372081 138 177 -33" mask="url(#mask-6)" opacity="0.400000006" fill-rule="nonzero" fill="#C5F2EB" id="路径-86"></polygon>
                <polygon points="191.205876 -33 58 138 83.0763053 138 215 -33" mask="url(#mask-6)" opacity="0.400000006" fill-rule="nonzero" fill="#C5F2EB" id="路径-89"></polygon>
            </g>
            <polygon points="232.222203 218 233 328.950374 226.777797 329 226 218.049626" fill-rule="nonzero" fill="#A4DCD4" id="路径-152"></polygon>
            <polygon points="470.222203 218 471 328.950374 464.777797 329 464 218.049626" fill-rule="nonzero" fill="#A4DCD4" id="路径-152"></polygon>
            <path fill-rule="nonzero" fill="#A4DCD4" id="路径-154" d="M277.692308,231 C279.519096,231 281,232.567003 281,234.5 C281,236.345133 279.650664,237.856789 277.939165,237.9904 L277.692308,238 L241.307692,238 C239.480904,238 238,236.432997 238,234.5 C238,232.654867 239.349336,231.143211 241.060835,231.0096 L241.307692,231 L277.692308,231 Z"></path>
            <path fill-rule="nonzero" fill="#A4DCD4" id="路径-154" d="M524.692308,231 C526.519096,231 528,232.567003 528,234.5 C528,236.345133 526.650664,237.856789 524.939165,237.9904 L524.692308,238 L488.307692,238 C486.480904,238 485,236.432997 485,234.5 C485,232.654867 486.349336,231.143211 488.060835,231.0096 L488.307692,231 L524.692308,231 Z"></path>
            <polygon points="5.68434189e-14 316 1000 316 1000 348.758098 986.338798 406 13.6612022 406 5.68434189e-14 354.317053" fill-rule="nonzero" fill="#184657" id="矩形"></polygon>
            <g transform="translate(78.000000, 295.000000)" id="车轮">
                <path fill="#2C5C6E" id="形状结合" d="M123.5,-3.05533376e-13 C187.922017,-3.05533376e-13 240.823288,48.3276719 246.496389,109.998415 L0.503610542,109.998415 C6.17671236,48.3276719 59.0779832,-3.05533376e-13 123.5,-3.05533376e-13 Z"></path>
                <ellipse ry="91.5" rx="92.5" cy="121.5" cx="122.5" fill="#0D232B" id="椭圆形"></ellipse>
                <ellipse ry="47.5" rx="48.5" cy="120.5" cx="123.5" fill="#FFFFFF" id="椭圆形"></ellipse>
            </g>
            <g transform="translate(638.000000, 295.000000)" id="车轮">
                <path fill="#2C5C6E" id="形状结合" d="M123.5,1.49213975e-13 C187.922017,1.49213975e-13 240.823288,48.3276719 246.496389,109.998415 L0.503610542,109.998415 C6.17671236,48.3276719 59.0779832,1.49213975e-13 123.5,1.49213975e-13 Z"></path>
                <ellipse ry="91.5" rx="92.5" cy="121.5" cx="122.5" fill="#0D232B" id="椭圆形"></ellipse>
                <ellipse ry="47.5" rx="48.5" cy="120.5" cx="123.5" fill="#FFFFFF" id="椭圆形"></ellipse>
            </g>
            <path fill-rule="nonzero" fill="#483029" id="矩形" d="M521,28 L521,56 L418,56 L418,28 L521,28 Z M517,31 L421,31 L421,52 L517,52 L517,31 Z"></path>
            <rect rx="16" height="43" width="142" y="-1.17239551e-13" x="398" fill="#E85F5B" id="矩形"></rect>
        </g>
    </g>
</svg>